<svg width="114" height="22" viewBox="0 0 114 22" fill="none" xmlns="http://www.w3.org/2000/svg">
<path d="M53.0129 2.68101V1.17869C53.0129 1.17869 53.0129 0.0151367 52.0618 0.0151367H44.2335C43.1215 0.0151367 42.2289 0.913579 42.2289 2.03295V19.4421C42.2289 20.5173 43.0922 21.401 44.175 21.401H52.0618C52.6032 21.401 53.0276 20.9592 53.0276 20.4289V12.5197C53.0276 11.5181 52.2228 10.7081 51.2278 10.7081H48.0965C47.4965 10.7081 47.0137 11.1941 47.0137 11.798V13.4034H49.5158C49.9255 13.4034 50.2621 13.7422 50.2621 14.1546V18.6615H44.9505L44.9944 3.41744C44.9944 2.97558 45.3602 2.60736 45.7992 2.60736L53.0129 2.68101Z" fill="white"/>
<path d="M58.719 0.000244141V18.6613H64.0891V0.000244141L65.6548 0.0297013C66.2986 0.0444298 66.8254 0.574658 66.8254 1.23744V19.6187C66.8254 20.5908 66.0352 21.3861 65.0695 21.3861H57.8557C56.89 21.3861 56.0999 20.5908 56.0999 19.6187V1.32582C56.0999 0.604115 56.6851 0.000244141 57.4168 0.000244141C57.4168 0.000244141 58.719 0.000244141 58.719 0.000244141Z" fill="white"/>
<path d="M69.8694 0.000244141V20.2815C69.8694 20.8853 70.3523 21.3861 70.9668 21.3861H72.6203V1.10489C72.6203 0.501015 72.1374 0.000244141 71.5228 0.000244141C71.5228 0.000244141 69.8694 0.000244141 69.8694 0.000244141Z" fill="white"/>
<path d="M100.159 2.72503H92.1108V10.7079H96.442C97.0273 10.7079 97.4955 11.1792 97.4955 11.7684V13.4916H92.1108V18.6466H100.159V20.2373C100.159 20.959 99.5733 21.5481 98.8563 21.5334L91.2621 21.4303C90.2379 21.4156 89.4038 20.576 89.4038 19.5303V1.90023C89.4038 0.854501 90.2525 0.000244141 91.2914 0.000244141H99.0904C99.6903 0.000244141 100.159 0.486287 100.159 1.07543V2.72503Z" fill="white"/>
<path d="M113.985 2.72503H106.611C106.26 2.72503 105.967 3.0196 105.967 3.37309V7.3498C105.967 7.67383 106.216 7.95367 106.538 7.99786L112.478 8.76374C113.342 8.88157 113.985 9.618 113.985 10.487V19.6187C113.985 20.5908 113.195 21.3861 112.23 21.3861H104.474C103.845 21.3861 103.333 20.8853 103.304 20.252L103.26 18.735H111.132V11.4443L104.738 10.5754C103.904 10.4575 103.275 9.73583 103.275 8.88157V1.84131C103.275 0.825044 104.094 0.000244141 105.104 0.000244141H112.961C113.532 0.000244141 114 0.471558 114 1.04597L113.985 2.72503Z" fill="white"/>
<path d="M8.86721 0H0V20.5022C0 20.9882 0.395074 21.3859 0.877941 21.3859H2.66309V13.4325H8.77941C9.81831 13.4325 10.6524 12.5929 10.6524 11.5472V1.81161C10.6524 0.810071 9.84757 0 8.86721 0ZM8.0478 10.6929H2.67772V2.6806H8.0478V10.6929Z" fill="white"/>
<path d="M24.5963 20.4289L22.5771 13.3298C23.7038 13.3298 24.6256 12.4019 24.6256 11.2678V1.97404C24.6256 0.884122 23.7477 0.0151367 22.6795 0.0151367H13.8269V20.5468C13.8269 21.0181 14.2073 21.401 14.6756 21.401H16.4754V13.3592H19.8993L21.8454 21.3863H23.1331H23.8793C24.3768 21.3863 24.7427 20.915 24.5963 20.4289ZM21.9186 10.6933H16.5339V2.68101H21.9186V10.6933Z" fill="white"/>
<path d="M36.5657 0.000244141H29.4983C28.4594 0.000244141 27.6107 0.854501 27.6107 1.90023V19.4861C27.6107 20.5319 28.4594 21.3861 29.4983 21.3861H36.5657C37.6046 21.3861 38.4533 20.5319 38.4533 19.4861V1.90023C38.4533 0.854501 37.6046 0.000244141 36.5657 0.000244141ZM35.7024 17.9691C35.7024 18.411 35.3512 18.7644 34.9123 18.7644H31.064C30.625 18.7644 30.2738 18.411 30.2738 17.9691V3.47619C30.2738 3.03433 30.625 2.68084 31.064 2.68084H34.9123C35.3512 2.68084 35.7024 3.03433 35.7024 3.47619V17.9691Z" fill="white"/>
<path d="M84.7649 0.0737305H75.8684V21.4596H84.7649C85.716 21.4596 86.4915 20.679 86.4915 19.7216V1.8117C86.4769 0.854344 85.7014 0.0737305 84.7649 0.0737305ZM83.8138 17.8069C83.8138 18.3813 83.3602 18.8379 82.7895 18.8379H78.3852V2.75433H82.7895C83.3602 2.75433 83.8138 3.21092 83.8138 3.78533V17.8069Z" fill="white"/>
</svg>
